<?xml version="1.0" encoding="UTF-8"?>
<svg xmlns="http://www.w3.org/2000/svg" xmlns:xlink="http://www.w3.org/1999/xlink" width="375pt" height="374.999991pt" viewBox="0 0 375 374.999991" version="1.2">
<g id="surface1">
<path style=" stroke:none;fill-rule:nonzero;fill:rgb(100%,100%,100%);fill-opacity:1;" d="M 191.722656 104.234375 C 153.773438 104.234375 123.011719 135.003906 123.011719 172.953125 C 123.011719 208.476562 149.96875 237.707031 184.535156 241.296875 L 152.800781 184.914062 C 140.691406 163.40625 148.316406 136.164062 169.820312 124.058594 C 191.316406 111.953125 218.566406 119.574219 230.667969 141.078125 C 238.59375 155.164062 238.015625 171.773438 230.667969 184.914062 L 198.933594 241.292969 C 233.496094 237.6875 260.4375 208.472656 260.4375 172.953125 C 260.4375 135.007812 229.667969 104.234375 191.722656 104.234375 "/>
<path style=" stroke:none;fill-rule:nonzero;fill:rgb(100%,100%,100%);fill-opacity:1;" d="M 226.6875 162.082031 C 226.6875 142.769531 211.035156 127.113281 191.722656 127.113281 C 172.40625 127.113281 156.757812 142.769531 156.757812 162.082031 C 156.757812 181.394531 172.40625 197.050781 191.722656 197.050781 C 211.035156 197.050781 226.6875 181.394531 226.6875 162.082031 "/>
<path style=" stroke:none;fill-rule:nonzero;fill:rgb(1.179504%,59.609985%,61.959839%);fill-opacity:1;" d="M 192.347656 200.980469 C 179.40625 200.980469 167.929688 194.601562 160.878906 184.824219 C 168.472656 183.125 177.253906 180.476562 186.464844 177.136719 C 186.613281 178.894531 187.035156 179.34375 187.320312 179.644531 C 187.757812 180.105469 188.34375 180.359375 188.96875 180.359375 C 188.992188 180.359375 189.015625 180.359375 189.039062 180.355469 C 189.96875 180.328125 190.84375 179.835938 191.640625 178.882812 C 192 178.457031 192.257812 177.9375 192.390625 177.386719 L 192.703125 176.042969 C 193.746094 175.652344 195.457031 175.011719 197.375 174.285156 L 197.609375 181.875 C 197.652344 183.226562 198.742188 184.28125 200.09375 184.28125 C 200.460938 184.28125 200.820312 184.203125 201.152344 184.042969 C 204.675781 182.390625 205.21875 180.0625 205.304688 179.414062 L 206.515625 170.753906 C 207.515625 170.351562 208.199219 170.058594 208.59375 169.871094 C 209.914062 169.234375 210.953125 168.128906 211.613281 166.6875 C 218.75 163.316406 225.246094 159.851562 230.707031 156.488281 C 230.984375 158.351562 231.132812 160.257812 231.132812 162.199219 C 231.132812 183.582031 213.734375 200.980469 192.347656 200.980469 Z M 199.398438 171.253906 C 195.144531 172.875 190.902344 174.453125 190.902344 174.453125 L 190.328125 176.902344 C 190.273438 177.128906 190.171875 177.34375 190.023438 177.523438 C 189.773438 177.820312 189.355469 178.230469 188.976562 178.242188 L 188.96875 178.242188 C 188.683594 178.242188 188.578125 177.328125 188.550781 176.378906 C 188.515625 175.351562 188.570312 174.28125 188.570312 174.28125 C 188.570312 174.28125 188.550781 174.265625 188.515625 174.238281 C 188.34375 174.113281 187.769531 173.691406 187.1875 173.210938 C 187.074219 173.117188 186.964844 173.023438 186.855469 172.929688 C 186.84375 172.921875 186.839844 172.917969 186.832031 172.910156 C 186.71875 172.8125 186.609375 172.714844 186.507812 172.621094 C 185.96875 172.125 185.578125 171.667969 185.726562 171.488281 C 185.976562 171.195312 186.558594 171.128906 186.945312 171.121094 L 186.976562 171.121094 C 187.199219 171.121094 187.417969 171.171875 187.621094 171.269531 L 188.71875 171.792969 L 189.660156 172.242188 L 189.890625 172.347656 C 189.890625 172.347656 190.265625 172.125 190.898438 171.746094 C 190.914062 171.738281 190.929688 171.730469 190.945312 171.722656 C 191.316406 171.5 191.773438 171.226562 192.296875 170.914062 C 192.3125 170.902344 192.332031 170.890625 192.355469 170.882812 C 192.476562 170.808594 192.609375 170.726562 192.742188 170.648438 C 193.21875 170.363281 193.742188 170.054688 194.292969 169.730469 C 194.335938 169.703125 194.382812 169.675781 194.429688 169.648438 C 194.570312 169.5625 194.714844 169.480469 194.859375 169.394531 C 195.765625 168.855469 196.734375 168.285156 197.703125 167.714844 L 189.660156 160.867188 C 189.460938 160.695312 189.503906 160.371094 189.742188 160.253906 C 190.917969 159.675781 191.847656 159.511719 192.53125 159.511719 C 193.457031 159.511719 193.921875 159.820312 193.921875 159.820312 L 202.511719 164.921875 C 203.851562 164.152344 204.921875 163.5625 205.441406 163.3125 C 206.019531 163.035156 206.605469 162.929688 207.160156 162.929688 C 207.835938 162.929688 208.457031 163.085938 208.964844 163.273438 C 209.046875 163.300781 209.125 163.332031 209.203125 163.363281 C 209.324219 163.414062 209.449219 163.464844 209.546875 163.511719 C 209.65625 163.5625 209.746094 163.628906 209.824219 163.707031 C 209.984375 163.863281 210.082031 164.070312 210.105469 164.292969 C 210.117188 164.402344 210.113281 164.515625 210.085938 164.628906 C 210.046875 164.789062 209.996094 164.96875 209.933594 165.160156 C 209.882812 165.3125 209.824219 165.46875 209.761719 165.628906 C 209.675781 165.824219 209.582031 166.023438 209.464844 166.226562 C 209.410156 166.324219 209.355469 166.414062 209.292969 166.507812 C 208.921875 167.074219 208.40625 167.609375 207.675781 167.960938 C 207.609375 167.992188 207.535156 168.027344 207.453125 168.066406 C 206.871094 168.328125 205.84375 168.746094 204.589844 169.242188 L 204.574219 169.34375 L 204.492188 169.929688 L 203.203125 179.136719 C 203.203125 179.136719 203.058594 180.808594 200.25 182.128906 C 200.199219 182.152344 200.148438 182.164062 200.09375 182.164062 C 199.90625 182.164062 199.730469 182.019531 199.722656 181.808594 Z M 192.347656 123.414062 C 210.230469 123.414062 225.3125 135.582031 229.78125 152.070312 C 224.558594 155.371094 218.257812 158.796875 211.265625 162.15625 C 211.03125 161.9375 210.765625 161.746094 210.460938 161.601562 C 209.707031 161.242188 208.519531 160.8125 207.160156 160.8125 C 206.226562 160.8125 205.339844 161.007812 204.523438 161.402344 C 204.128906 161.59375 203.476562 161.945312 202.535156 162.472656 L 195.015625 158.007812 C 194.691406 157.808594 193.847656 157.390625 192.53125 157.390625 C 191.359375 157.390625 190.109375 157.714844 188.808594 158.351562 C 188.054688 158.722656 187.539062 159.445312 187.4375 160.277344 C 187.332031 161.109375 187.648438 161.933594 188.289062 162.476562 L 194.066406 167.402344 C 192.304688 168.445312 190.734375 169.378906 189.777344 169.953125 L 188.53125 169.355469 C 188.042969 169.125 187.507812 169.003906 186.976562 169.003906 L 186.894531 169.003906 C 185.652344 169.03125 184.71875 169.40625 184.117188 170.117188 C 183.710938 170.59375 183.519531 171.234375 183.597656 171.867188 C 183.636719 172.210938 183.695312 172.65625 184.324219 173.40625 C 174.910156 176.789062 166.015625 179.410156 158.449219 181.007812 C 155.34375 175.433594 153.566406 169.023438 153.566406 162.199219 C 153.566406 140.8125 170.964844 123.414062 192.347656 123.414062 Z M 246.722656 138.707031 C 245.441406 135.542969 241.121094 134.464844 233.113281 135.316406 C 231.949219 135.441406 231.109375 136.480469 231.234375 137.644531 C 231.355469 138.808594 232.398438 139.648438 233.5625 139.527344 C 240.664062 138.773438 242.65625 139.941406 242.796875 140.296875 C 243.003906 140.808594 241.890625 143.792969 233.488281 149.628906 C 228.097656 132.023438 211.695312 119.179688 192.347656 119.179688 C 168.628906 119.179688 149.332031 138.480469 149.332031 162.199219 C 149.332031 169.277344 151.0625 175.953125 154.101562 181.847656 C 143.75 183.585938 140.816406 182.191406 140.609375 181.671875 C 140.46875 181.332031 141.042969 179.195312 146.375 174.960938 C 147.289062 174.234375 147.445312 172.902344 146.714844 171.984375 C 145.988281 171.070312 144.65625 170.917969 143.742188 171.644531 C 137.75 176.402344 135.441406 180.203125 136.683594 183.261719 C 137.671875 185.707031 140.652344 186.921875 145.714844 186.921875 C 148.589844 186.921875 152.144531 186.527344 156.375 185.746094 C 164.070312 197.460938 177.316406 205.214844 192.347656 205.214844 C 216.070312 205.214844 235.367188 185.917969 235.367188 162.199219 C 235.367188 159.398438 235.089844 156.660156 234.574219 154.007812 C 244.273438 147.511719 248.257812 142.5 246.722656 138.707031 "/>
</g>
</svg>
